<svg width="17" height="17" viewBox="0 0 17 17" fill="none" xmlns="http://www.w3.org/2000/svg">
<g id="Vector">
<path fill-rule="evenodd" clip-rule="evenodd" d="M0 8.5C0 6.24566 0.895533 4.08365 2.48959 2.48959C4.08365 0.895533 6.24566 0 8.5 0C10.7543 0 12.9163 0.895533 14.5104 2.48959C16.1045 4.08365 17 6.24566 17 8.5C17 10.7543 16.1045 12.9163 14.5104 14.5104C12.9163 16.1045 10.7543 17 8.5 17C6.24566 17 4.08365 16.1045 2.48959 14.5104C0.895533 12.9163 0 10.7543 0 8.5ZM7.93333 8.5V3.4H9.06667V8.2654L12.3012 11.4988L11.4988 12.3012L8.0988 8.9012C8.04616 8.84852 8.00445 8.78595 7.97605 8.7171C7.94766 8.64825 7.93314 8.57447 7.93333 8.5Z" fill="#E36D31"/>
</g>
</svg>
