<svg width="14" height="21" viewBox="0 0 14 21" fill="none" xmlns="http://www.w3.org/2000/svg">
<g id="Vector">
<path d="M7 0.5C3.13 0.5 0 3.63 0 7.5C0 12.75 7 20.5 7 20.5C7 20.5 14 12.75 14 7.5C14 3.63 10.87 0.5 7 0.5ZM7 10C6.33696 10 5.70107 9.73661 5.23223 9.26777C4.76339 8.79893 4.5 8.16304 4.5 7.5C4.5 6.83696 4.76339 6.20107 5.23223 5.73223C5.70107 5.26339 6.33696 5 7 5C7.66304 5 8.29893 5.26339 8.76777 5.73223C9.23661 6.20107 9.5 6.83696 9.5 7.5C9.5 8.16304 9.23661 8.79893 8.76777 9.26777C8.29893 9.73661 7.66304 10 7 10Z" fill="#E36D31"/>
</g>
</svg>
