<svg width="15" height="13" viewBox="0 0 15 13" fill="none" xmlns="http://www.w3.org/2000/svg">
<g id="Vector">
<path d="M2.5 0.25C1.83696 0.25 1.20107 0.513392 0.732233 0.982233C0.263392 1.45107 0 2.08696 0 2.75V3.00125L7.5 7.04L15 3.0025V2.75C15 2.08696 14.7366 1.45107 14.2678 0.982233C13.7989 0.513392 13.163 0.25 12.5 0.25H2.5ZM15 4.42125L7.79625 8.3C7.7052 8.34901 7.60341 8.37467 7.5 8.37467C7.39659 8.37467 7.2948 8.34901 7.20375 8.3L0 4.42125V10.25C0 10.913 0.263392 11.5489 0.732233 12.0178C1.20107 12.4866 1.83696 12.75 2.5 12.75H12.5C13.163 12.75 13.7989 12.4866 14.2678 12.0178C14.7366 11.5489 15 10.913 15 10.25V4.42125Z" fill="#E36D31"/>
</g>
</svg>
