<svg width="19" height="16" viewBox="0 0 19 16" fill="none" xmlns="http://www.w3.org/2000/svg">
<path id="Vector" fill-rule="evenodd" clip-rule="evenodd" d="M16.2652 14.7227C16.2408 14.9865 16.1351 15.237 15.963 15.4424C15.7923 15.6465 15.562 15.7963 15.3018 15.8719C15.0417 15.9474 14.7653 15.9448 14.5078 15.8653C14.249 15.7857 14.0214 15.632 13.8534 15.4239C12.3765 14.2747 10.0731 12.6205 10.0731 12.6205C10.0731 12.6205 8.40645 15.4928 8.10836 15.7871C8.00944 15.8679 7.89565 15.9289 7.77235 15.9633C7.64769 15.9991 7.51896 16.0084 7.3916 15.9925C7.26288 15.9753 7.14094 15.9329 7.03119 15.8666C6.92144 15.8016 6.82657 15.7141 6.7534 15.6107C6.7385 15.5657 6.71956 15.5206 6.69924 15.4782L7.63411 10.9026L14.3005 4.49663L5.20878 9.57186C5.20878 9.57186 1.10326 8.37101 0.493533 8.1364C0.336358 8.05289 0.206282 7.92695 0.119565 7.77319C0.0328478 7.61944 -0.00916333 7.4458 0.00167628 7.27084C0.0111609 7.09588 0.0721626 6.92754 0.175139 6.78438C0.27947 6.64123 0.423085 6.52989 0.588389 6.46361C1.45556 6.03151 16.753 0.316054 17.2678 0.168926C17.7827 0.021798 19.1377 -0.361268 18.9886 0.928422C18.8396 2.21811 16.4142 14.0149 16.2652 14.7227Z" fill="#72B0E1"/>
</svg>
