<svg width="20" height="19" viewBox="0 0 20 19" fill="none" xmlns="http://www.w3.org/2000/svg">
<path id="Vector" fill-rule="evenodd" clip-rule="evenodd" d="M10.0005 19C8.11504 18.9949 6.26963 18.4809 4.68023 17.5152L0 19L1.56009 14.5445C0.385369 12.759 -0.133346 10.6525 0.085331 8.55736C0.305341 6.46097 1.25205 4.49275 2.77478 2.96487C4.29752 1.43572 6.31094 0.431947 8.49904 0.110889C10.6871 -0.210169 12.9246 0.170528 14.8607 1.19334C16.7954 2.21489 18.3195 3.82018 19.1915 5.75541C20.0649 7.69191 20.2356 9.8492 19.6796 11.8885C19.1235 13.9278 17.8702 15.7323 16.1181 17.0203C14.366 18.3071 12.2139 19.0038 10.0005 19ZM12.1739 10.924C12.8393 11.1309 13.5153 11.3022 14.2006 11.438C14.2726 11.4481 14.342 11.4723 14.4033 11.5078C14.466 11.5446 14.5206 11.5915 14.562 11.6487C14.6047 11.7045 14.634 11.768 14.65 11.8365C14.666 11.9037 14.6673 11.9735 14.654 12.042V12.4012C14.6607 12.5319 14.6353 12.6613 14.5793 12.7806C14.5246 12.8999 14.4393 13.0065 14.334 13.089C14.006 13.4062 13.6166 13.6613 13.1873 13.8402C12.5539 13.9113 11.9125 13.8593 11.3032 13.6841C10.6925 13.509 10.1271 13.2171 9.64045 12.825C9.01376 12.4253 8.4284 11.9684 7.89371 11.4608C7.36169 10.9494 6.87897 10.3923 6.45362 9.79716C6.0456 9.33397 5.74027 8.79593 5.55893 8.216C5.37892 7.63733 5.32423 7.02822 5.40023 6.42798C5.58824 6.0219 5.85495 5.65388 6.18697 5.34171C6.27097 5.23892 6.38163 5.1577 6.50697 5.10567C6.63231 5.05364 6.77096 5.03081 6.90697 5.04223H7.29367C7.43901 5.0232 7.58703 5.05998 7.70437 5.14374C7.82304 5.22876 7.90036 5.3544 7.92036 5.49273C8.12037 6.24398 8.26705 6.78711 8.46706 7.39623C8.54706 7.65003 8.45371 7.71094 8.24037 7.86322C8.10703 7.96093 8.00038 8.03201 7.89371 8.10815C7.83237 8.13353 7.77636 8.17158 7.73102 8.21854C7.68569 8.26549 7.65099 8.32132 7.62966 8.38224C7.60833 8.44315 7.60033 8.50787 7.60699 8.57132C7.61366 8.63477 7.63368 8.69696 7.66702 8.75279C8.00703 9.37587 8.44305 9.94819 8.96041 10.4507C9.4871 10.9431 10.0898 11.3568 10.7472 11.6779C10.8058 11.7083 10.8712 11.7286 10.9378 11.7337C11.0045 11.74 11.0725 11.7324 11.1365 11.7121C11.2005 11.6918 11.2592 11.6601 11.3098 11.6169C11.3592 11.5738 11.3992 11.5218 11.4272 11.4634C11.5072 11.3606 11.5739 11.2654 11.6805 11.1322C11.6979 11.0865 11.7232 11.0446 11.7579 11.0091C11.7912 10.9735 11.8325 10.9443 11.8792 10.924C11.9245 10.9037 11.9752 10.8923 12.0259 10.891C12.0766 10.8898 12.1272 10.8974 12.1739 10.9152V10.924Z" fill="#67AC5B"/>
</svg>
