<svg width="16" height="17" viewBox="0 0 16 17" fill="none" xmlns="http://www.w3.org/2000/svg">
<g id="ph:paper-plane-tilt-fill">
<path id="Vector" d="M14.4625 3.27145V3.28083L10.825 15.2771C10.7699 15.4719 10.6566 15.6453 10.5002 15.7739C10.3438 15.9024 10.1518 15.9801 9.95 15.9965C9.92125 15.999 9.8925 16.0002 9.86375 16.0002C9.67462 16.0008 9.48927 15.9473 9.32958 15.8459C9.16988 15.7446 9.04251 15.5997 8.9625 15.4283L6.73062 10.7165C6.70859 10.6698 6.7015 10.6176 6.71034 10.5668C6.71918 10.516 6.74351 10.4691 6.78 10.4327L10.3587 6.85333C10.4486 6.7588 10.4979 6.63292 10.4962 6.50254C10.4945 6.37216 10.442 6.24759 10.3498 6.15539C10.2576 6.06319 10.133 6.01065 10.0027 6.00898C9.87228 6.00731 9.7464 6.05664 9.65187 6.14645L6.0675 9.7252C6.03106 9.76169 5.98424 9.78602 5.93345 9.79486C5.88265 9.8037 5.83036 9.79661 5.78375 9.77458L1.09625 7.55395C0.912149 7.46961 0.75722 7.33253 0.651079 7.16008C0.544937 6.98763 0.492357 6.78756 0.499996 6.5852C0.510176 6.37722 0.585471 6.17771 0.715234 6.01486C0.844998 5.85201 1.02267 5.73406 1.22312 5.6777L13.2194 2.0402H13.2287C13.3995 1.99222 13.58 1.99053 13.7517 2.03533C13.9234 2.08012 14.08 2.16978 14.2056 2.29511C14.3312 2.42043 14.4212 2.57691 14.4663 2.74848C14.5115 2.92006 14.5101 3.10055 14.4625 3.27145Z" fill="#E36D31"/>
</g>
</svg>
