<svg width="24" height="24" viewBox="0 0 24 24" fill="none" xmlns="http://www.w3.org/2000/svg">
<circle cx="12" cy="12" r="12" fill="#72A2EB"/>
<circle cx="12" cy="12" r="9" fill="#2B54A3"/>
<path d="M10.73 13.71C10.73 13.2993 10.8513 12.9073 11.094 12.534C11.346 12.1607 11.6167 11.862 11.906 11.638C12.1953 11.4047 12.4613 11.134 12.704 10.826C12.956 10.518 13.082 10.21 13.082 9.902C13.082 9.57533 12.97 9.32333 12.746 9.146C12.522 8.96867 12.2093 8.88 11.808 8.88C11.024 8.88 10.4687 9.29533 10.142 10.126L8.49 9.174C8.77 8.48333 9.21333 7.95133 9.82 7.578C10.436 7.19533 11.122 7.004 11.878 7.004C12.7273 7.004 13.46 7.25133 14.076 7.746C14.7013 8.23133 15.014 8.90333 15.014 9.762C15.014 10.154 14.93 10.518 14.762 10.854C14.6033 11.19 14.4073 11.4793 14.174 11.722C13.95 11.9553 13.7213 12.1793 13.488 12.394C13.264 12.5993 13.068 12.814 12.9 13.038C12.7413 13.262 12.662 13.486 12.662 13.71H10.73ZM12.536 16.832C12.3027 17.0653 12.0227 17.182 11.696 17.182C11.3693 17.182 11.0893 17.0653 10.856 16.832C10.6227 16.5987 10.506 16.3187 10.506 15.992C10.506 15.6653 10.6227 15.3853 10.856 15.152C11.0893 14.9187 11.3693 14.802 11.696 14.802C12.0227 14.802 12.3027 14.9187 12.536 15.152C12.7693 15.3853 12.886 15.6653 12.886 15.992C12.886 16.3187 12.7693 16.5987 12.536 16.832Z" fill="white"/>
</svg>
