<svg width="56" height="56" viewBox="0 0 56 56" fill="none" xmlns="http://www.w3.org/2000/svg">
<circle cx="28" cy="28" r="28" fill="#E36D31"/>
<path d="M30.2299 18.5321C30.2598 18.4204 30.3114 18.3157 30.3817 18.224C30.4521 18.1322 30.5398 18.0553 30.6399 17.9974C30.7401 17.9396 30.8506 17.9021 30.9652 17.887C31.0798 17.8719 31.1963 17.8796 31.308 17.9095C32.9394 18.3351 34.4278 19.188 35.62 20.3802C36.8122 21.5724 37.665 23.0608 38.0907 24.6922C38.1206 24.8039 38.1283 24.9203 38.1132 25.035C38.0981 25.1496 38.0605 25.2601 38.0027 25.3602C37.9449 25.4603 37.8679 25.5481 37.7762 25.6184C37.6844 25.6888 37.5797 25.7404 37.4681 25.7702C37.3937 25.7898 37.3172 25.7997 37.2404 25.7999C37.0464 25.7999 36.8579 25.7359 36.7042 25.6177C36.5504 25.4995 36.44 25.3339 36.39 25.1465C36.0429 23.8147 35.3469 22.5997 34.3737 21.6265C33.4005 20.6533 32.1854 19.9573 30.8536 19.6101C30.7419 19.5804 30.637 19.5289 30.5452 19.4586C30.4533 19.3883 30.3762 19.3005 30.3183 19.2004C30.2604 19.1003 30.2227 18.9897 30.2076 18.8751C30.1924 18.7604 30.2 18.6438 30.2299 18.5321ZM29.9736 23.1302C31.4906 23.535 32.4652 24.5096 32.87 26.0265C32.9199 26.2139 33.0303 26.3796 33.1841 26.4977C33.3379 26.6159 33.5264 26.6799 33.7203 26.6799C33.7972 26.6797 33.8737 26.6698 33.948 26.6502C34.0597 26.6204 34.1644 26.5688 34.2561 26.4984C34.3479 26.4281 34.4248 26.3403 34.4827 26.2402C34.5405 26.1401 34.578 26.0296 34.5931 25.915C34.6082 25.8004 34.6005 25.6839 34.5706 25.5722C34.0074 23.4646 32.5356 21.9928 30.4279 21.4296C30.3163 21.3997 30.1998 21.3922 30.0852 21.4074C29.9707 21.4225 29.8602 21.4601 29.7601 21.518C29.6601 21.5758 29.5724 21.6529 29.5021 21.7446C29.4318 21.8364 29.3803 21.941 29.3505 22.0527C29.3206 22.1644 29.3131 22.2808 29.3283 22.3954C29.3434 22.51 29.381 22.6205 29.4389 22.7205C29.4968 22.8206 29.5738 22.9082 29.6655 22.9785C29.7573 23.0488 29.862 23.1004 29.9736 23.1302ZM38.9872 33.6189C38.791 35.1094 38.059 36.4776 36.9278 37.4679C35.7967 38.4582 34.3437 39.0028 32.8403 39.0002C24.1061 39.0002 17 31.894 17 23.1599C16.9973 21.6565 17.542 20.2035 18.5323 19.0723C19.5226 17.9411 20.8907 17.2091 22.3813 17.013C22.7582 16.967 23.1399 17.0441 23.4694 17.2328C23.7989 17.4215 24.0585 17.7118 24.2095 18.0602L26.5328 23.2468V23.26C26.6484 23.5267 26.6961 23.8179 26.6717 24.1075C26.6474 24.3972 26.5516 24.6763 26.3931 24.9199C26.3733 24.9496 26.3524 24.9771 26.3304 25.0046L24.0401 27.7195C24.864 29.3937 26.6153 31.1295 28.3115 31.9556L30.989 29.6775C31.0152 29.6554 31.0428 29.6348 31.0715 29.6159C31.3149 29.4535 31.5949 29.3544 31.8863 29.3275C32.1777 29.3006 32.4712 29.3468 32.7402 29.4619L32.7545 29.4685L37.9367 31.7906C38.2857 31.9411 38.5766 32.2005 38.766 32.53C38.9554 32.8596 39.033 33.2416 38.9872 33.6189ZM37.2404 33.3989H37.2283L32.0582 31.0833L29.3796 33.3615C29.3536 33.3835 29.3265 33.404 29.2982 33.4231C29.0449 33.592 28.7522 33.6924 28.4485 33.7144C28.1448 33.7364 27.8407 33.6792 27.5657 33.5485C25.5054 32.5529 23.4516 30.5146 22.455 28.4763C22.323 28.2033 22.2638 27.9009 22.2831 27.5983C22.3024 27.2957 22.3995 27.0033 22.565 26.7492C22.5837 26.7194 22.6046 26.6911 22.6277 26.6645L24.9201 23.9464L22.6101 18.7763C22.6097 18.7719 22.6097 18.7675 22.6101 18.7631C21.5434 18.9023 20.5639 19.4255 19.8552 20.2348C19.1465 21.0442 18.7572 22.0841 18.76 23.1599C18.7641 26.8929 20.2489 30.4719 22.8885 33.1116C25.5282 35.7513 29.1072 37.236 32.8403 37.2401C33.9154 37.2438 34.955 36.8558 35.7649 36.1486C36.5747 35.4415 37.0992 34.4636 37.2404 33.3978V33.3989Z" fill="white"/>
</svg>
