<svg width="32" height="33" viewBox="0 0 32 33" fill="none" xmlns="http://www.w3.org/2000/svg">
<g id="Group 4">
<path id="Vector" d="M32 16.5C32 7.66344 24.8366 0.5 16 0.5C7.16344 0.5 0 7.66344 0 16.5C0 25.3366 7.16344 32.5 16 32.5C24.8366 32.5 32 25.3366 32 16.5Z" fill="url(#paint0_linear_23_1907)"/>
<path id="Vector_2" fill-rule="evenodd" clip-rule="evenodd" d="M13.3953 10.9189H18.6046C19.3942 10.9189 20.151 11.2322 20.7092 11.7911C21.2681 12.3493 21.5814 13.1061 21.5814 13.8957V19.105C21.5814 19.8946 21.2681 20.6514 20.7092 21.2096C20.151 21.7684 19.3942 22.0817 18.6046 22.0817H13.3953C12.6057 22.0817 11.8489 21.7684 11.2908 21.2096C10.7319 20.6514 10.4186 19.8946 10.4186 19.105V13.8957C10.4186 13.1061 10.7319 12.3493 11.2908 11.7911C11.8489 11.2322 12.6057 10.9189 13.3953 10.9189ZM13.3953 12.4073H18.6046C18.999 12.4073 19.3778 12.5643 19.6569 12.8434C19.936 13.1225 20.093 13.5013 20.093 13.8957V19.105C20.093 19.4994 19.936 19.8782 19.6569 20.1573C19.3778 20.4363 18.999 20.5934 18.6046 20.5934H13.3953C13.0009 20.5934 12.6221 20.4363 12.343 20.1573C12.064 19.8782 11.907 19.4994 11.907 19.105V13.8957C11.907 13.5013 12.064 13.1225 12.343 12.8434C12.6221 12.5643 13.0009 12.4073 13.3953 12.4073ZM16 13.8957C16.515 13.8957 17.0188 14.0482 17.4474 14.3348C17.8753 14.6205 18.2095 15.0276 18.4067 15.5039C18.6031 15.9794 18.6552 16.5033 18.5548 17.0086C18.4543 17.5139 18.2057 17.9776 17.8418 18.3422C17.4772 18.7061 17.0136 18.9547 16.5083 19.0551C16.003 19.1556 15.479 19.1035 15.0035 18.907C14.5272 18.7098 14.1202 18.3757 13.8344 17.947C13.5479 17.5191 13.3953 17.0153 13.3953 16.5003C13.3953 15.8097 13.6699 15.1467 14.1581 14.6585C14.647 14.1703 15.3094 13.8957 16 13.8957ZM16 15.3841C16.221 15.3841 16.4368 15.4495 16.6199 15.5723C16.8037 15.6951 16.9466 15.8693 17.0314 16.0732C17.1155 16.2771 17.1378 16.5018 17.0947 16.7184C17.0515 16.9349 16.9451 17.1336 16.7896 17.2899C16.6333 17.4455 16.4346 17.5519 16.218 17.595C16.0015 17.6382 15.7767 17.6159 15.5728 17.5318C15.3689 17.4469 15.1948 17.3041 15.072 17.1203C14.9492 16.9372 14.8837 16.7214 14.8837 16.5003C14.8837 16.2042 15.0013 15.9206 15.2104 15.7108C15.4202 15.5016 15.7038 15.3841 16 15.3841Z" fill="white"/>
</g>
<defs>
<linearGradient id="paint0_linear_23_1907" x1="24.0015" y1="0.5" x2="7.99851" y2="32.5" gradientUnits="userSpaceOnUse">
<stop stop-color="#9E42B4"/>
<stop offset="0.067" stop-color="#9E42B4"/>
<stop offset="0.473" stop-color="#E5566F"/>
<stop offset="1" stop-color="#FDC76D"/>
</linearGradient>
</defs>
</svg>
