<svg width="32" height="33" viewBox="0 0 32 33" fill="none" xmlns="http://www.w3.org/2000/svg">
<g id="Group 2">
<path id="Vector" d="M32 16.5C32 7.66344 24.8366 0.5 16 0.5C7.16344 0.5 0 7.66344 0 16.5C0 25.3366 7.16344 32.5 16 32.5C24.8366 32.5 32 25.3366 32 16.5Z" fill="#7B519D"/>
<path id="Vector_2" fill-rule="evenodd" clip-rule="evenodd" d="M13.7006 12.35C13.976 12.7965 14.5936 13.8733 14.6829 14.0698C14.7596 14.2 14.7834 14.3541 14.7499 14.5014C14.7172 14.6488 14.6293 14.7783 14.5043 14.8631C14.0229 15.1555 13.6771 15.6772 13.8737 16.205C14.0011 16.547 14.2649 16.9791 14.7722 17.4841C15.9183 18.625 16.8411 18.8556 17.0792 18.6004C17.3174 18.3451 17.4587 18.0631 17.6076 17.9142C17.7162 17.7967 17.8651 17.723 18.0251 17.7096C18.3401 17.6816 18.6124 17.9122 18.8878 18.0678C19.3707 18.3407 19.8403 18.6372 20.2941 18.9561C20.6587 19.2374 20.9341 19.4421 20.8001 19.8082C20.6774 20.1736 20.4734 20.507 20.2048 20.7831C19.986 21.0011 19.7159 21.1611 19.4197 21.2489C19.1242 21.3368 18.8109 21.3502 18.508 21.2876C17.6455 21.0763 16.8277 20.7154 16.0894 20.2212C15.3066 19.6609 14.5788 19.0268 13.9164 18.328C13.3107 17.7334 12.7555 17.0889 12.2569 16.4021C11.7665 15.5827 11.4122 14.6889 11.2076 13.7565C11.1391 13.5102 11.1324 13.2512 11.1882 13.0019C11.244 12.7518 11.3609 12.5204 11.5276 12.3269C11.8252 12.0181 12.2048 11.8 12.6215 11.6988C12.9118 11.6229 13.2392 11.6229 13.7006 12.35ZM16.4021 12.4884C16.1808 12.4662 16.0001 12.288 16.0001 12.0657C16.0001 11.8433 16.1807 11.6613 16.4023 11.6798C17.5379 11.7745 18.6085 12.2681 19.4204 13.08C20.2325 13.8921 20.7261 14.9629 20.8207 16.0987C20.8391 16.32 20.6574 16.5003 20.4354 16.5003C20.2134 16.5003 20.0356 16.32 20.0134 16.0992C19.9207 15.1772 19.5128 14.3103 18.8519 13.6493C18.1904 12.9886 17.3239 12.5807 16.4021 12.4884ZM19.2225 16.5003C19.2225 16.4999 19.2221 16.4995 19.2217 16.4995H18.8204C18.5985 16.4995 18.4219 16.3186 18.3851 16.0998C18.3022 15.6067 18.0681 15.1481 17.7095 14.7902C17.352 14.4326 16.8939 14.1987 16.4014 14.1155C16.1818 14.0785 16.0001 13.9013 16.0001 13.6786C16.0001 13.4557 16.1815 13.2724 16.4027 13.3004C16.6877 13.3365 16.9672 13.4108 17.234 13.5213C17.6247 13.6828 17.9804 13.9209 18.2796 14.2201C18.5787 14.52 18.8161 14.875 18.9776 15.2664C19.1391 15.6579 19.2225 16.0769 19.2225 16.5003Z" fill="white"/>
</g>
</svg>
