<svg width="32" height="33" viewBox="0 0 32 33" fill="none" xmlns="http://www.w3.org/2000/svg">
<g id="Group 5">
<path id="Vector" d="M32 16.5C32 7.66344 24.8366 0.5 16 0.5C7.16344 0.5 0 7.66344 0 16.5C0 25.3366 7.16344 32.5 16 32.5C24.8366 32.5 32 25.3366 32 16.5Z" fill="#2AA1DA"/>
<path id="Vector_2" fill-rule="evenodd" clip-rule="evenodd" d="M19.3339 19.9232C19.3205 20.0713 19.2624 20.212 19.1679 20.3273C19.0741 20.4419 18.9476 20.526 18.8047 20.5685C18.6619 20.6109 18.51 20.6094 18.3686 20.5647C18.3045 20.5446 18.2439 20.5159 18.1881 20.4799C18.0526 20.3921 17.9457 20.2661 17.8186 20.1665C17.7463 20.11 17.6719 20.0521 17.5962 19.9936C16.7196 19.3163 15.6336 19.734 14.8538 20.5208C14.7995 20.5662 14.737 20.6005 14.6693 20.6198C14.6008 20.6399 14.5301 20.6451 14.4602 20.6362C14.3895 20.6265 14.3225 20.6027 14.2622 20.5655C14.209 20.5333 14.1622 20.4912 14.1243 20.4419C14.1143 20.4288 14.1072 20.4138 14.1015 20.3984C14.0888 20.3647 14.0837 20.3284 14.0908 20.2931L14.5548 17.9716C14.5799 17.8458 14.6423 17.7304 14.7339 17.6405C15.2688 17.115 14.6194 16.2563 13.9681 16.628L13.524 16.8814C13.3562 16.9772 13.157 17.0001 12.972 16.9445C12.3524 16.758 10.9318 16.3278 10.6715 16.2254C10.5852 16.1785 10.5137 16.1078 10.4661 16.0215C10.4185 15.9351 10.3954 15.8377 10.4014 15.7394C10.4066 15.6412 10.4401 15.5467 10.4966 15.4663C10.5539 15.3859 10.6328 15.3234 10.7236 15.2862C11.1999 15.0436 19.6018 11.8347 19.8845 11.7521C20.1673 11.6695 20.9115 11.4544 20.8297 12.1785C20.7478 12.9026 19.4157 19.5258 19.3339 19.9232Z" fill="white"/>
</g>
</svg>
