<svg width="32" height="33" viewBox="0 0 32 33" fill="none" xmlns="http://www.w3.org/2000/svg">
<g id="Group 3">
<path id="Vector" d="M32 16.5C32 7.66344 24.8366 0.5 16 0.5C7.16344 0.5 0 7.66344 0 16.5C0 25.3366 7.16344 32.5 16 32.5C24.8366 32.5 32 25.3366 32 16.5Z" fill="#2787F5"/>
<path id="Vector_2" fill-rule="evenodd" clip-rule="evenodd" d="M11.3277 13.1514C10.8286 13.1514 10.4228 13.563 10.4699 14.0599C10.8148 17.6964 12.7992 19.849 16.0932 19.849C16.2046 19.849 16.295 19.7587 16.295 19.6472V18.7135C16.295 18.0406 16.9015 17.5038 17.4795 17.8484C18.0129 18.1664 18.444 18.6507 18.7386 19.231C18.9183 19.5851 19.2595 19.849 19.6566 19.849C20.2526 19.849 20.6874 19.2787 20.4145 18.7488C20.3035 18.5331 20.1819 18.333 20.0533 18.1481C19.4317 17.2536 19.3575 15.6137 19.8964 14.6672C19.9933 14.4969 20.0823 14.3177 20.1606 14.1302C20.3665 13.6374 19.9589 13.1514 19.4249 13.1514C19.0367 13.1514 18.7039 13.4149 18.544 13.7686C18.2956 14.3183 17.9349 14.8161 17.525 15.1824C16.969 15.6792 16.295 15.1477 16.295 14.4021V13.9909C16.295 13.5272 15.9191 13.1514 15.4555 13.1514C14.9918 13.1514 14.616 13.5272 14.616 13.9909V15.1773C14.616 16.5011 13.3409 17.246 12.7825 16.0457C12.5346 15.5128 12.345 14.8457 12.2558 14.0242C12.2034 13.5417 11.813 13.1514 11.3277 13.1514Z" fill="white"/>
</g>
</svg>
