<svg width="32" height="33" viewBox="0 0 32 33" fill="none" xmlns="http://www.w3.org/2000/svg">
<g id="Group 1">
<path id="Vector" d="M32 16.5C32 7.66344 24.8366 0.5 16 0.5C7.16344 0.5 0 7.66344 0 16.5C0 25.3366 7.16344 32.5 16 32.5C24.8366 32.5 32 25.3366 32 16.5Z" fill="#65BC54"/>
<path id="Vector_2" fill-rule="evenodd" clip-rule="evenodd" d="M16 22.0817C15.1249 22.0792 14.2653 21.8704 13.4905 21.4744C13.1919 21.3219 12.8459 21.2726 12.5277 21.3786C11.6587 21.6683 10.8332 20.8374 11.1228 19.9683C11.228 19.6527 11.1811 19.3084 11.0318 19.0111C10.5596 18.0704 10.3615 17.0116 10.4662 15.9578C10.589 14.7284 11.1174 13.5742 11.9672 12.6782C12.8171 11.7814 13.9408 11.1928 15.162 11.0045C16.3832 10.8162 17.632 11.0395 18.7125 11.6393C19.7923 12.2383 20.643 13.1797 21.1297 14.3146C21.6171 15.4502 21.7123 16.7154 21.402 17.9113C21.0917 19.1072 20.3922 20.1654 19.4143 20.9208C18.4364 21.6754 17.2353 22.0839 16 22.0817ZM17.213 17.343C17.213 17.3446 17.214 17.346 17.2156 17.3465C17.5861 17.4674 17.9625 17.5676 18.3442 17.6471C18.3843 17.653 18.423 17.6672 18.4573 17.688C18.4923 17.7096 18.5228 17.7371 18.5458 17.7706C18.5696 17.8034 18.586 17.8406 18.595 17.8808C18.6128 17.9595 18.5972 18.042 18.5972 18.1227V18.2119C18.6009 18.2886 18.5868 18.3645 18.5555 18.4344C18.525 18.5044 18.4774 18.5669 18.4186 18.6153C18.0551 18.9847 17.5098 19.1251 17.0003 19.0306C16.9082 19.0136 16.817 18.9915 16.727 18.9643C16.3862 18.8616 16.0707 18.6904 15.7991 18.4605C15.4493 18.2261 15.1226 17.9581 14.8242 17.6605C14.5272 17.3606 14.2578 17.0339 14.0204 16.6848C13.7927 16.4132 13.6223 16.0977 13.5211 15.7576C13.4944 15.6675 13.4727 15.5762 13.4559 15.4841C13.3636 14.9764 13.5045 14.4347 13.8716 14.072C13.9185 14.0117 13.9803 13.9641 14.0502 13.9336C14.1202 13.9031 14.1976 13.8897 14.2735 13.8964H14.4893C14.5704 13.8852 14.653 13.9068 14.7185 13.9559C14.7847 14.0058 14.8279 14.0795 14.839 14.1606C14.9507 14.6011 15.0325 14.9196 15.1442 15.2769C15.1888 15.4257 15.1367 15.4614 15.0176 15.5507C14.9802 15.5796 14.9465 15.6045 14.9146 15.6278C14.8544 15.6719 14.7839 15.7041 14.7334 15.7591C14.7081 15.7866 14.6887 15.8194 14.6768 15.8551C14.6649 15.8908 14.6604 15.9288 14.6642 15.966C14.6679 16.0032 14.679 16.0396 14.6976 16.0724C14.8874 16.4378 15.1308 16.7734 15.4195 17.0681C15.7135 17.3569 16.0498 17.5995 16.4167 17.7877C16.4495 17.8056 16.4859 17.8175 16.5231 17.8205C16.5603 17.8242 16.5983 17.8197 16.634 17.8078C16.6697 17.7959 16.7025 17.7773 16.7308 17.752C16.7343 17.7488 16.7378 17.7454 16.7412 17.742C16.7867 17.6957 16.8157 17.6356 16.8534 17.5828C16.8641 17.5677 16.8753 17.5521 16.8872 17.5357C16.9201 17.4903 16.9426 17.4367 16.9808 17.3956C16.9994 17.3747 17.0225 17.3576 17.0485 17.3457C17.0738 17.3338 17.1021 17.3271 17.1304 17.3263C17.1578 17.3256 17.1853 17.3298 17.2107 17.3396C17.2121 17.3401 17.213 17.3415 17.213 17.343Z" fill="white"/>
</g>
</svg>
