<svg width="18" height="19" viewBox="0 0 18 19" fill="none" xmlns="http://www.w3.org/2000/svg">
<path id="Vector" fill-rule="evenodd" clip-rule="evenodd" d="M9.00041 18.4843C7.58935 18.4803 6.2032 18.1435 4.95372 17.505C4.47218 17.259 3.91418 17.1795 3.40117 17.3505C1.99973 17.8177 0.668657 16.4778 1.13569 15.0763C1.30531 14.5673 1.22957 14.0122 0.988874 13.5327C0.227423 12.0158 -0.0920093 10.3084 0.0767979 8.60902C0.274807 6.62653 1.12684 4.76525 2.49731 3.32038C3.86777 1.87431 5.67985 0.92508 7.64914 0.621466C9.61843 0.317852 11.6321 0.677865 13.3746 1.64511C15.1159 2.61115 16.4876 4.12922 17.2724 5.95931C18.0584 7.79059 18.212 9.83067 17.7116 11.7592C17.2112 13.6876 16.0831 15.3941 14.5063 16.6122C12.9294 17.829 10.9925 18.4879 9.00041 18.4843ZM10.9565 10.8428C10.9565 10.8454 10.9582 10.8477 10.9606 10.8485C11.5581 11.0435 12.1652 11.205 12.7806 11.3331C12.8454 11.3427 12.9078 11.3656 12.963 11.3992C13.0194 11.434 13.0686 11.4784 13.1058 11.5324C13.1442 11.5852 13.1706 11.6452 13.185 11.71C13.2138 11.837 13.1886 11.9699 13.1886 12.1001V12.244C13.1946 12.3676 13.1718 12.49 13.1214 12.6028C13.0722 12.7156 12.9954 12.8164 12.9006 12.8944C12.3144 13.4901 11.4352 13.7165 10.6135 13.5642C10.465 13.5367 10.3179 13.5011 10.1728 13.4572C9.62323 13.2916 9.11443 13.0156 8.67641 12.6448C8.11238 12.2668 7.58556 11.8348 7.10434 11.3547C6.62552 10.8711 6.19108 10.3443 5.80826 9.78146C5.44104 9.34344 5.16624 8.83463 5.00304 8.28621C4.96004 8.14097 4.92498 7.99371 4.89797 7.84511C4.74911 7.02642 4.97632 6.1529 5.56827 5.56808C5.64387 5.47088 5.74347 5.39407 5.85627 5.34487C5.96908 5.29567 6.09387 5.27408 6.21627 5.28488H6.5643C6.69511 5.26688 6.82833 5.30166 6.93393 5.38087C7.04074 5.46127 7.11033 5.58009 7.12833 5.71089C7.30833 6.42133 7.44035 6.93495 7.62035 7.51098C7.69236 7.75099 7.60834 7.80858 7.41633 7.95259C7.35589 7.99913 7.30154 8.03928 7.25022 8.07687C7.15313 8.14797 7.03934 8.2 6.95792 8.2886C6.91712 8.33301 6.88589 8.38581 6.86669 8.44341C6.84749 8.50101 6.84029 8.56222 6.84629 8.62222C6.8523 8.68222 6.87031 8.74103 6.90031 8.79383C7.20633 9.38306 7.59875 9.92428 8.06437 10.3995C8.53839 10.8651 9.08081 11.2564 9.67244 11.56C9.72524 11.5888 9.78405 11.6079 9.84405 11.6127C9.90405 11.6187 9.96524 11.6115 10.0228 11.5923C10.0804 11.5731 10.1333 11.5432 10.1789 11.5024C10.1846 11.4971 10.1902 11.4917 10.1956 11.4861C10.269 11.4115 10.3158 11.3147 10.3765 11.2295C10.3939 11.2051 10.4119 11.18 10.4311 11.1535C10.4842 11.0803 10.5205 10.9938 10.5821 10.9275C10.6121 10.8939 10.6493 10.8663 10.6913 10.8471C10.7321 10.8279 10.7777 10.8171 10.8233 10.8159C10.8675 10.8147 10.9118 10.8215 10.9527 10.8372C10.955 10.8381 10.9565 10.8403 10.9565 10.8428Z" fill="white"/>
</svg>
